<svg width="64" height="64" viewBox="0 0 64 64" fill="none" xmlns="http://www.w3.org/2000/svg" role="img" aria-hidden="true">
  <rect x="6" y="6" width="52" height="52" rx="12" fill="#F6F1E8" stroke="#C9973B" stroke-width="2"/>
  <path d="M22 18H40C41.1046 18 42 18.8954 42 20V44C42 45.1046 41.1046 46 40 46H24C22.8954 46 22 45.1046 22 44V18Z" fill="#FDFBF7" stroke="#C9973B" stroke-width="2"/>
  <path d="M18 22H34C35.1046 22 36 22.8954 36 24V46" stroke="#C9973B" stroke-width="2" stroke-linecap="round"/>
  <path d="M24 28H38" stroke="#C9973B" stroke-width="2" stroke-linecap="round"/>
  <path d="M24 33H36" stroke="#C9973B" stroke-width="2" stroke-linecap="round"/>
  <path d="M24 38H34" stroke="#C9973B" stroke-width="2" stroke-linecap="round"/>
  <path d="M28 18V16C28 14.8954 28.8954 14 30 14H36" stroke="#C9973B" stroke-width="2" stroke-linecap="round"/>
  <circle cx="24" cy="26" r="2" fill="#C9973B"/>
</svg>
